<mxfile host="app.diagrams.net" modified="2024-03-05T11:15:56.583Z" agent="Mozilla/5.0 (Windows NT 10.0; Win64; x64) AppleWebKit/537.36 (KHTML, like Gecko) Chrome/122.0.0.0 Safari/537.36" etag="g9hUk-QMfMFQqI-8h7-n" version="23.1.8" type="device">
  <diagram name="Strona-1" id="buMpOr_ZwKpquUrr4kBO">
    <mxGraphModel dx="1622" dy="858" grid="1" gridSize="10" guides="1" tooltips="1" connect="1" arrows="1" fold="1" page="1" pageScale="1" pageWidth="827" pageHeight="1169" math="0" shadow="0">
      <root>
        <mxCell id="0" />
        <mxCell id="1" parent="0" />
        <mxCell id="Q0K8Y9eCpqZBaKtIUFg7-9" style="edgeStyle=orthogonalEdgeStyle;rounded=0;orthogonalLoop=1;jettySize=auto;html=1;entryX=0;entryY=0.5;entryDx=0;entryDy=0;endArrow=ERone;endFill=0;startArrow=ERone;startFill=0;" edge="1" parent="1" source="Q0K8Y9eCpqZBaKtIUFg7-1" target="Q0K8Y9eCpqZBaKtIUFg7-5">
          <mxGeometry relative="1" as="geometry" />
        </mxCell>
        <mxCell id="Q0K8Y9eCpqZBaKtIUFg7-18" style="edgeStyle=orthogonalEdgeStyle;rounded=0;orthogonalLoop=1;jettySize=auto;html=1;exitX=0.75;exitY=1;exitDx=0;exitDy=0;entryX=0.5;entryY=0;entryDx=0;entryDy=0;startArrow=ERzeroToOne;startFill=0;endArrow=ERzeroToMany;endFill=0;" edge="1" parent="1" source="Q0K8Y9eCpqZBaKtIUFg7-1" target="Q0K8Y9eCpqZBaKtIUFg7-17">
          <mxGeometry relative="1" as="geometry">
            <mxPoint x="590" y="560" as="targetPoint" />
            <Array as="points">
              <mxPoint x="450" y="470" />
              <mxPoint x="590" y="470" />
            </Array>
          </mxGeometry>
        </mxCell>
        <mxCell id="Q0K8Y9eCpqZBaKtIUFg7-1" value="Users" style="rounded=0;whiteSpace=wrap;html=1;" vertex="1" parent="1">
          <mxGeometry x="360" y="390" width="120" height="60" as="geometry" />
        </mxCell>
        <mxCell id="Q0K8Y9eCpqZBaKtIUFg7-8" style="edgeStyle=orthogonalEdgeStyle;rounded=0;orthogonalLoop=1;jettySize=auto;html=1;entryX=0.5;entryY=1;entryDx=0;entryDy=0;endArrow=ERone;endFill=0;startArrow=ERzeroToMany;startFill=0;" edge="1" parent="1" source="Q0K8Y9eCpqZBaKtIUFg7-4" target="Q0K8Y9eCpqZBaKtIUFg7-1">
          <mxGeometry relative="1" as="geometry" />
        </mxCell>
        <mxCell id="Q0K8Y9eCpqZBaKtIUFg7-10" style="edgeStyle=orthogonalEdgeStyle;rounded=0;orthogonalLoop=1;jettySize=auto;html=1;entryX=0.5;entryY=0;entryDx=0;entryDy=0;endArrow=ERone;endFill=0;startArrow=ERzeroToMany;startFill=0;" edge="1" parent="1" source="Q0K8Y9eCpqZBaKtIUFg7-4" target="Q0K8Y9eCpqZBaKtIUFg7-6">
          <mxGeometry relative="1" as="geometry" />
        </mxCell>
        <mxCell id="Q0K8Y9eCpqZBaKtIUFg7-4" value="Comments" style="rounded=0;whiteSpace=wrap;html=1;" vertex="1" parent="1">
          <mxGeometry x="360" y="490" width="120" height="60" as="geometry" />
        </mxCell>
        <mxCell id="Q0K8Y9eCpqZBaKtIUFg7-5" value="Roles" style="rounded=0;whiteSpace=wrap;html=1;" vertex="1" parent="1">
          <mxGeometry x="530" y="390" width="120" height="60" as="geometry" />
        </mxCell>
        <mxCell id="Q0K8Y9eCpqZBaKtIUFg7-6" value="News" style="rounded=0;whiteSpace=wrap;html=1;" vertex="1" parent="1">
          <mxGeometry x="360" y="600" width="120" height="60" as="geometry" />
        </mxCell>
        <mxCell id="Q0K8Y9eCpqZBaKtIUFg7-11" style="edgeStyle=orthogonalEdgeStyle;rounded=0;orthogonalLoop=1;jettySize=auto;html=1;entryX=0;entryY=0.5;entryDx=0;entryDy=0;endArrow=ERone;endFill=0;startArrow=ERoneToMany;startFill=0;" edge="1" parent="1" source="Q0K8Y9eCpqZBaKtIUFg7-7" target="Q0K8Y9eCpqZBaKtIUFg7-6">
          <mxGeometry relative="1" as="geometry" />
        </mxCell>
        <mxCell id="Q0K8Y9eCpqZBaKtIUFg7-7" value="Tags" style="rounded=0;whiteSpace=wrap;html=1;" vertex="1" parent="1">
          <mxGeometry x="200" y="600" width="120" height="60" as="geometry" />
        </mxCell>
        <mxCell id="Q0K8Y9eCpqZBaKtIUFg7-13" style="edgeStyle=orthogonalEdgeStyle;rounded=0;orthogonalLoop=1;jettySize=auto;html=1;entryX=0.5;entryY=1;entryDx=0;entryDy=0;endArrow=ERone;endFill=0;startArrow=ERoneToMany;startFill=0;" edge="1" parent="1" source="Q0K8Y9eCpqZBaKtIUFg7-12" target="Q0K8Y9eCpqZBaKtIUFg7-6">
          <mxGeometry relative="1" as="geometry" />
        </mxCell>
        <mxCell id="Q0K8Y9eCpqZBaKtIUFg7-12" value="Authors" style="rounded=0;whiteSpace=wrap;html=1;" vertex="1" parent="1">
          <mxGeometry x="360" y="710" width="120" height="60" as="geometry" />
        </mxCell>
        <mxCell id="Q0K8Y9eCpqZBaKtIUFg7-15" style="edgeStyle=orthogonalEdgeStyle;rounded=0;orthogonalLoop=1;jettySize=auto;html=1;entryX=0;entryY=0.5;entryDx=0;entryDy=0;endArrow=ERone;endFill=0;startArrow=ERone;startFill=0;" edge="1" parent="1" source="Q0K8Y9eCpqZBaKtIUFg7-14" target="Q0K8Y9eCpqZBaKtIUFg7-1">
          <mxGeometry relative="1" as="geometry" />
        </mxCell>
        <mxCell id="Q0K8Y9eCpqZBaKtIUFg7-16" style="edgeStyle=orthogonalEdgeStyle;rounded=0;orthogonalLoop=1;jettySize=auto;html=1;entryX=0.25;entryY=0;entryDx=0;entryDy=0;startArrow=ERone;startFill=0;endArrow=ERzeroToMany;endFill=0;exitX=0.5;exitY=1;exitDx=0;exitDy=0;" edge="1" parent="1" source="Q0K8Y9eCpqZBaKtIUFg7-14" target="Q0K8Y9eCpqZBaKtIUFg7-6">
          <mxGeometry relative="1" as="geometry">
            <mxPoint x="340" y="570" as="targetPoint" />
            <Array as="points">
              <mxPoint x="220" y="560" />
              <mxPoint x="390" y="560" />
            </Array>
          </mxGeometry>
        </mxCell>
        <mxCell id="Q0K8Y9eCpqZBaKtIUFg7-14" value="Favourite Lists" style="rounded=0;whiteSpace=wrap;html=1;" vertex="1" parent="1">
          <mxGeometry x="160" y="390" width="120" height="60" as="geometry" />
        </mxCell>
        <mxCell id="Q0K8Y9eCpqZBaKtIUFg7-19" style="edgeStyle=orthogonalEdgeStyle;rounded=0;orthogonalLoop=1;jettySize=auto;html=1;entryX=1;entryY=0.5;entryDx=0;entryDy=0;endArrow=ERone;endFill=0;startArrow=ERzeroToMany;startFill=0;" edge="1" parent="1" source="Q0K8Y9eCpqZBaKtIUFg7-17" target="Q0K8Y9eCpqZBaKtIUFg7-6">
          <mxGeometry relative="1" as="geometry" />
        </mxCell>
        <mxCell id="Q0K8Y9eCpqZBaKtIUFg7-17" value="Context Informations" style="rounded=0;whiteSpace=wrap;html=1;" vertex="1" parent="1">
          <mxGeometry x="530" y="600" width="120" height="60" as="geometry" />
        </mxCell>
      </root>
    </mxGraphModel>
  </diagram>
</mxfile>
